{
	"asset":{
		"generator":"Khronos glTF Blender I/O v4.5.47",
		"version":"2.0"
	},
	"extensionsUsed":[
		"KHR_materials_unlit"
	],
	"scene":0,
	"scenes":[
		{
			"name":"Scene",
			"nodes":[
				0
			]
		}
	],
	"nodes":[
		{
			"mesh":0,
			"name":"Plane",
			"rotation":[
				0.7071068286895752,
				0,
				0,
				0.7071068286895752
			],
			"scale":[
				1.960837960243225,
				1.960837960243225,
				1.960837960243225
			],
			"translation":[
				-0.2395734339952469,
				4.362094879150391,
				0
			]
		}
	],
	"materials":[
		{
			"doubleSided":true,
			"extensions":{
				"KHR_materials_unlit":{}
			},
			"name":"Portail",
			"pbrMetallicRoughness":{
				"baseColorTexture":{
					"index":0
				},
				"metallicFactor":0,
				"roughnessFactor":0.9
			}
		}
	],
	"meshes":[
		{
			"name":"Plane",
			"primitives":[
				{
					"attributes":{
						"POSITION":0,
						"NORMAL":1,
						"TEXCOORD_0":2
					},
					"indices":3,
					"material":0
				}
			]
		}
	],
	"textures":[
		{
			"sampler":0,
			"source":0
		}
	],
	"images":[
		{
			"mimeType":"image/png",
			"name":"Portail",
			"uri":"Portail.png"
		}
	],
	"accessors":[
		{
			"bufferView":0,
			"componentType":5126,
			"count":7041,
			"max":[
				0.9993700981140137,
				4.173353662650925e-09,
				1.000000238418579
			],
			"min":[
				-0.9928072094917297,
				0,
				-0.9180352091789246
			],
			"type":"VEC3"
		},
		{
			"bufferView":1,
			"componentType":5126,
			"count":7041,
			"type":"VEC3"
		},
		{
			"bufferView":2,
			"componentType":5126,
			"count":7041,
			"type":"VEC2"
		},
		{
			"bufferView":3,
			"componentType":5123,
			"count":41088,
			"type":"SCALAR"
		}
	],
	"bufferViews":[
		{
			"buffer":0,
			"byteLength":84492,
			"byteOffset":0,
			"target":34962
		},
		{
			"buffer":0,
			"byteLength":84492,
			"byteOffset":84492,
			"target":34962
		},
		{
			"buffer":0,
			"byteLength":56328,
			"byteOffset":168984,
			"target":34962
		},
		{
			"buffer":0,
			"byteLength":82176,
			"byteOffset":225312,
			"target":34963
		}
	],
	"samplers":[
		{
			"magFilter":9729,
			"minFilter":9987
		}
	],
	"buffers":[
		{
			"byteLength":307488,
			"uri":"Portal.bin"
		}
	]
}
