{
	"asset":{
		"generator":"Khronos glTF Blender I/O v4.5.47",
		"version":"2.0"
	},
	"extensionsUsed":[
		"KHR_materials_emissive_strength"
	],
	"scene":0,
	"scenes":[
		{
			"name":"Scene",
			"nodes":[
				0,
				1,
				2,
				3,
				4,
				5
			]
		}
	],
	"nodes":[
		{
			"mesh":0,
			"name":"Cube",
			"scale":[
				2.969816207885742,
				2.969816207885742,
				2.969816207885742
			],
			"translation":[
				0,
				3.6974287033081055,
				-2.969817638397217
			]
		},
		{
			"mesh":1,
			"name":"Text",
			"rotation":[
				0.5830906629562378,
				-0.40000662207603455,
				0.40000665187835693,
				0.5830906629562378
			],
			"scale":[
				0.2750275135040283,
				0.2750275135040283,
				0.2750275135040283
			],
			"translation":[
				5.188042163848877,
				2.183192014694214,
				-3.0651402473449707
			]
		},
		{
			"mesh":2,
			"name":"Cube.001",
			"scale":[
				2.969816207885742,
				2.8906939029693604,
				2.969816207885742
			],
			"translation":[
				-3.861039161682129,
				3.8144888877868652,
				1.9748499393463135
			]
		},
		{
			"mesh":3,
			"name":"Cylinder",
			"scale":[
				0.049786947667598724,
				0.6777852177619934,
				0.049786947667598724
			],
			"translation":[
				0,
				3.6974287033081055,
				-2.969817638397217
			]
		},
		{
			"mesh":4,
			"name":"Cylinder.001",
			"scale":[
				0.049786947667598724,
				0.6777852177619934,
				0.049786947667598724
			],
			"translation":[
				-1.4420835971832275,
				3.6974287033081055,
				-2.969817638397217
			]
		},
		{
			"mesh":5,
			"name":"Text.001",
			"rotation":[
				0.5830906629562378,
				-0.4000066816806793,
				0.4000067114830017,
				0.5830906629562378
			],
			"scale":[
				0.2786194384098053,
				0.2786194384098053,
				0.2786194384098053
			],
			"translation":[
				5.178822994232178,
				2.183192014694214,
				-3.0651402473449707
			]
		}
	],
	"materials":[
		{
			"doubleSided":true,
			"emissiveFactor":[
				0.29999998211860657,
				0.29999998211860657,
				0.29999998211860657
			],
			"name":"Material",
			"pbrMetallicRoughness":{
				"baseColorFactor":[
					0.800000011920929,
					0.800000011920929,
					0.800000011920929,
					1
				],
				"metallicFactor":0,
				"roughnessFactor":0.5
			}
		},
		{
			"doubleSided":true,
			"name":"Material.001",
			"pbrMetallicRoughness":{
				"baseColorFactor":[
					0,
					0,
					0,
					1
				],
				"metallicFactor":0,
				"roughnessFactor":0.5
			}
		},
		{
			"doubleSided":true,
			"name":"Material.002",
			"pbrMetallicRoughness":{
				"metallicFactor":0,
				"roughnessFactor":0.5
			}
		},
		{
			"doubleSided":true,
			"emissiveFactor":[
				1,
				1,
				1
			],
			"extensions":{
				"KHR_materials_emissive_strength":{
					"emissiveStrength":3.299999952316284
				}
			},
			"name":"Material.004",
			"pbrMetallicRoughness":{
				"baseColorFactor":[
					0,
					0,
					0,
					1
				]
			}
		},
		{
			"doubleSided":true,
			"name":"Material.007",
			"pbrMetallicRoughness":{
				"metallicFactor":0,
				"roughnessFactor":0.5
			}
		},
		{
			"doubleSided":true,
			"emissiveFactor":[
				1,
				1,
				1
			],
			"extensions":{
				"KHR_materials_emissive_strength":{
					"emissiveStrength":3.299999952316284
				}
			},
			"name":"Material.008",
			"pbrMetallicRoughness":{
				"baseColorFactor":[
					0,
					0,
					0,
					1
				]
			}
		},
		{
			"doubleSided":true,
			"name":"Material.006",
			"pbrMetallicRoughness":{
				"baseColorFactor":[
					0.800000011920929,
					0.800000011920929,
					0.800000011920929,
					1
				],
				"metallicFactor":0,
				"roughnessFactor":0.5
			}
		},
		{
			"doubleSided":true,
			"name":"Material.003",
			"pbrMetallicRoughness":{
				"baseColorFactor":[
					0,
					1,
					0.8169426918029785,
					1
				],
				"metallicFactor":0,
				"roughnessFactor":0.5
			}
		},
		{
			"doubleSided":true,
			"name":"Material.009",
			"pbrMetallicRoughness":{
				"metallicFactor":0,
				"roughnessFactor":0.5
			}
		}
	],
	"meshes":[
		{
			"name":"Cube",
			"primitives":[
				{
					"attributes":{
						"POSITION":0,
						"NORMAL":1,
						"TEXCOORD_0":2
					},
					"indices":3,
					"material":0
				},
				{
					"attributes":{
						"POSITION":4,
						"NORMAL":5,
						"TEXCOORD_0":6
					},
					"indices":7,
					"material":1
				},
				{
					"attributes":{
						"POSITION":8,
						"NORMAL":9,
						"TEXCOORD_0":10
					},
					"indices":11,
					"material":2
				},
				{
					"attributes":{
						"POSITION":12,
						"NORMAL":13,
						"TEXCOORD_0":14
					},
					"indices":15,
					"material":3
				},
				{
					"attributes":{
						"POSITION":16,
						"NORMAL":17,
						"TEXCOORD_0":18
					},
					"indices":19,
					"material":0
				},
				{
					"attributes":{
						"POSITION":20,
						"NORMAL":21,
						"TEXCOORD_0":22
					},
					"indices":23,
					"material":4
				},
				{
					"attributes":{
						"POSITION":24,
						"NORMAL":25,
						"TEXCOORD_0":26
					},
					"indices":27,
					"material":5
				},
				{
					"attributes":{
						"POSITION":28,
						"NORMAL":29,
						"TEXCOORD_0":30
					},
					"indices":31,
					"material":6
				}
			]
		},
		{
			"name":"Text",
			"primitives":[
				{
					"attributes":{
						"POSITION":32,
						"NORMAL":33,
						"TEXCOORD_0":34
					},
					"indices":35,
					"material":7
				}
			]
		},
		{
			"name":"Cube.001",
			"primitives":[
				{
					"attributes":{
						"POSITION":36,
						"NORMAL":37,
						"TEXCOORD_0":38
					},
					"indices":39,
					"material":0
				}
			]
		},
		{
			"name":"Cylinder",
			"primitives":[
				{
					"attributes":{
						"POSITION":40,
						"NORMAL":41,
						"TEXCOORD_0":42
					},
					"indices":43
				}
			]
		},
		{
			"name":"Cylinder.001",
			"primitives":[
				{
					"attributes":{
						"POSITION":44,
						"NORMAL":45,
						"TEXCOORD_0":46
					},
					"indices":43
				}
			]
		},
		{
			"name":"Text.001",
			"primitives":[
				{
					"attributes":{
						"POSITION":47,
						"NORMAL":48,
						"TEXCOORD_0":49
					},
					"indices":35,
					"material":8
				}
			]
		}
	],
	"accessors":[
		{
			"bufferView":0,
			"componentType":5126,
			"count":2270,
			"max":[
				1.0448702573776245,
				1.0466238260269165,
				2.0448708534240723
			],
			"min":[
				-1.0448702573776245,
				-1.0000003576278687,
				-2.0448708534240723
			],
			"type":"VEC3"
		},
		{
			"bufferView":1,
			"componentType":5126,
			"count":2270,
			"type":"VEC3"
		},
		{
			"bufferView":2,
			"componentType":5126,
			"count":2270,
			"type":"VEC2"
		},
		{
			"bufferView":3,
			"componentType":5123,
			"count":4752,
			"type":"SCALAR"
		},
		{
			"bufferView":4,
			"componentType":5126,
			"count":325,
			"max":[
				1.0448702573776245,
				0.9999995231628418,
				2.0448708534240723
			],
			"min":[
				-1.0448702573776245,
				0.9999995231628418,
				-2.0448708534240723
			],
			"type":"VEC3"
		},
		{
			"bufferView":5,
			"componentType":5126,
			"count":325,
			"type":"VEC3"
		},
		{
			"bufferView":6,
			"componentType":5126,
			"count":325,
			"type":"VEC2"
		},
		{
			"bufferView":7,
			"componentType":5123,
			"count":1728,
			"type":"SCALAR"
		},
		{
			"bufferView":8,
			"componentType":5126,
			"count":949,
			"max":[
				1.73221755027771,
				0.9999996423721313,
				2.000000476837158
			],
			"min":[
				-1,
				-1.0000003576278687,
				-2.000000476837158
			],
			"type":"VEC3"
		},
		{
			"bufferView":9,
			"componentType":5126,
			"count":949,
			"type":"VEC3"
		},
		{
			"bufferView":10,
			"componentType":5126,
			"count":949,
			"type":"VEC2"
		},
		{
			"bufferView":11,
			"componentType":5123,
			"count":4278,
			"type":"SCALAR"
		},
		{
			"bufferView":12,
			"componentType":5126,
			"count":488,
			"max":[
				0.9776430130004883,
				0.7822583317756653,
				1.8260306119918823
			],
			"min":[
				0.9764441251754761,
				-0.9854094982147217,
				-1.8260306119918823
			],
			"type":"VEC3"
		},
		{
			"bufferView":13,
			"componentType":5126,
			"count":488,
			"type":"VEC3"
		},
		{
			"bufferView":14,
			"componentType":5126,
			"count":488,
			"type":"VEC2"
		},
		{
			"bufferView":15,
			"componentType":5123,
			"count":960,
			"type":"SCALAR"
		},
		{
			"bufferView":16,
			"componentType":5126,
			"count":72,
			"max":[
				1.838038682937622,
				-0.5508075952529907,
				0.6003780961036682
			],
			"min":[
				0.995927095413208,
				-0.5753554105758667,
				-0.6003780961036682
			],
			"type":"VEC3"
		},
		{
			"bufferView":17,
			"componentType":5126,
			"count":72,
			"type":"VEC3"
		},
		{
			"bufferView":18,
			"componentType":5126,
			"count":72,
			"type":"VEC2"
		},
		{
			"bufferView":19,
			"componentType":5123,
			"count":108,
			"type":"SCALAR"
		},
		{
			"bufferView":20,
			"componentType":5126,
			"count":1270,
			"max":[
				1.924521565437317,
				-1.0000003576278687,
				2.000000476837158
			],
			"min":[
				-1,
				-1.119477391242981,
				-2.000000476837158
			],
			"type":"VEC3"
		},
		{
			"bufferView":21,
			"componentType":5126,
			"count":1270,
			"type":"VEC3"
		},
		{
			"bufferView":22,
			"componentType":5126,
			"count":1270,
			"type":"VEC2"
		},
		{
			"bufferView":23,
			"componentType":5123,
			"count":5526,
			"type":"SCALAR"
		},
		{
			"bufferView":24,
			"componentType":5126,
			"count":28,
			"max":[
				0.901543915271759,
				-0.6086714267730713,
				0.3110147714614868
			],
			"min":[
				0.9011127948760986,
				-0.9661120176315308,
				-0.3110147714614868
			],
			"type":"VEC3"
		},
		{
			"bufferView":25,
			"componentType":5126,
			"count":28,
			"type":"VEC3"
		},
		{
			"bufferView":26,
			"componentType":5126,
			"count":28,
			"type":"VEC2"
		},
		{
			"bufferView":27,
			"componentType":5123,
			"count":48,
			"type":"SCALAR"
		},
		{
			"bufferView":28,
			"componentType":5126,
			"count":70,
			"max":[
				1,
				-0.5753554105758667,
				0.3333338499069214
			],
			"min":[
				0.90107262134552,
				-1.0000003576278687,
				-0.3333338499069214
			],
			"type":"VEC3"
		},
		{
			"bufferView":29,
			"componentType":5126,
			"count":70,
			"type":"VEC3"
		},
		{
			"bufferView":30,
			"componentType":5126,
			"count":70,
			"type":"VEC2"
		},
		{
			"bufferView":31,
			"componentType":5123,
			"count":144,
			"type":"SCALAR"
		},
		{
			"bufferView":32,
			"componentType":5126,
			"count":10788,
			"max":[
				6.178745269775391,
				1.7999992370605469,
				0.4415636956691742
			],
			"min":[
				-5.194517612457275,
				-2.747250556945801,
				-0.43697383999824524
			],
			"type":"VEC3"
		},
		{
			"bufferView":33,
			"componentType":5126,
			"count":10788,
			"type":"VEC3"
		},
		{
			"bufferView":34,
			"componentType":5126,
			"count":10788,
			"type":"VEC2"
		},
		{
			"bufferView":35,
			"componentType":5123,
			"count":14412,
			"type":"SCALAR"
		},
		{
			"bufferView":36,
			"componentType":5126,
			"count":2484,
			"max":[
				2.309246063232422,
				1.0026860237121582,
				0.18206709623336792
			],
			"min":[
				2.301178216934204,
				-0.5573769807815552,
				-3.5022964477539062
			],
			"type":"VEC3"
		},
		{
			"bufferView":37,
			"componentType":5126,
			"count":2484,
			"type":"VEC3"
		},
		{
			"bufferView":38,
			"componentType":5126,
			"count":2484,
			"type":"VEC2"
		},
		{
			"bufferView":39,
			"componentType":5123,
			"count":6624,
			"type":"SCALAR"
		},
		{
			"bufferView":40,
			"componentType":5126,
			"count":384,
			"max":[
				103.7656021118164,
				-2.456027030944824,
				29.20944595336914
			],
			"min":[
				101.7656021118164,
				-4.456027030944824,
				-29.20944595336914
			],
			"type":"VEC3"
		},
		{
			"bufferView":41,
			"componentType":5126,
			"count":384,
			"type":"VEC3"
		},
		{
			"bufferView":42,
			"componentType":5126,
			"count":384,
			"type":"VEC2"
		},
		{
			"bufferView":43,
			"componentType":5123,
			"count":744,
			"type":"SCALAR"
		},
		{
			"bufferView":44,
			"componentType":5126,
			"count":384,
			"max":[
				97.23282623291016,
				-2.456027030944824,
				19.323753356933594
			],
			"min":[
				95.23282623291016,
				-4.456027030944824,
				-19.323753356933594
			],
			"type":"VEC3"
		},
		{
			"bufferView":45,
			"componentType":5126,
			"count":384,
			"type":"VEC3"
		},
		{
			"bufferView":46,
			"componentType":5126,
			"count":384,
			"type":"VEC2"
		},
		{
			"bufferView":47,
			"componentType":5126,
			"count":10788,
			"max":[
				6.178745269775391,
				1.7999992370605469,
				0.4415636956691742
			],
			"min":[
				-5.194517612457275,
				-2.747250556945801,
				-0.43697383999824524
			],
			"type":"VEC3"
		},
		{
			"bufferView":48,
			"componentType":5126,
			"count":10788,
			"type":"VEC3"
		},
		{
			"bufferView":49,
			"componentType":5126,
			"count":10788,
			"type":"VEC2"
		}
	],
	"bufferViews":[
		{
			"buffer":0,
			"byteLength":27240,
			"byteOffset":0,
			"target":34962
		},
		{
			"buffer":0,
			"byteLength":27240,
			"byteOffset":27240,
			"target":34962
		},
		{
			"buffer":0,
			"byteLength":18160,
			"byteOffset":54480,
			"target":34962
		},
		{
			"buffer":0,
			"byteLength":9504,
			"byteOffset":72640,
			"target":34963
		},
		{
			"buffer":0,
			"byteLength":3900,
			"byteOffset":82144,
			"target":34962
		},
		{
			"buffer":0,
			"byteLength":3900,
			"byteOffset":86044,
			"target":34962
		},
		{
			"buffer":0,
			"byteLength":2600,
			"byteOffset":89944,
			"target":34962
		},
		{
			"buffer":0,
			"byteLength":3456,
			"byteOffset":92544,
			"target":34963
		},
		{
			"buffer":0,
			"byteLength":11388,
			"byteOffset":96000,
			"target":34962
		},
		{
			"buffer":0,
			"byteLength":11388,
			"byteOffset":107388,
			"target":34962
		},
		{
			"buffer":0,
			"byteLength":7592,
			"byteOffset":118776,
			"target":34962
		},
		{
			"buffer":0,
			"byteLength":8556,
			"byteOffset":126368,
			"target":34963
		},
		{
			"buffer":0,
			"byteLength":5856,
			"byteOffset":134924,
			"target":34962
		},
		{
			"buffer":0,
			"byteLength":5856,
			"byteOffset":140780,
			"target":34962
		},
		{
			"buffer":0,
			"byteLength":3904,
			"byteOffset":146636,
			"target":34962
		},
		{
			"buffer":0,
			"byteLength":1920,
			"byteOffset":150540,
			"target":34963
		},
		{
			"buffer":0,
			"byteLength":864,
			"byteOffset":152460,
			"target":34962
		},
		{
			"buffer":0,
			"byteLength":864,
			"byteOffset":153324,
			"target":34962
		},
		{
			"buffer":0,
			"byteLength":576,
			"byteOffset":154188,
			"target":34962
		},
		{
			"buffer":0,
			"byteLength":216,
			"byteOffset":154764,
			"target":34963
		},
		{
			"buffer":0,
			"byteLength":15240,
			"byteOffset":154980,
			"target":34962
		},
		{
			"buffer":0,
			"byteLength":15240,
			"byteOffset":170220,
			"target":34962
		},
		{
			"buffer":0,
			"byteLength":10160,
			"byteOffset":185460,
			"target":34962
		},
		{
			"buffer":0,
			"byteLength":11052,
			"byteOffset":195620,
			"target":34963
		},
		{
			"buffer":0,
			"byteLength":336,
			"byteOffset":206672,
			"target":34962
		},
		{
			"buffer":0,
			"byteLength":336,
			"byteOffset":207008,
			"target":34962
		},
		{
			"buffer":0,
			"byteLength":224,
			"byteOffset":207344,
			"target":34962
		},
		{
			"buffer":0,
			"byteLength":96,
			"byteOffset":207568,
			"target":34963
		},
		{
			"buffer":0,
			"byteLength":840,
			"byteOffset":207664,
			"target":34962
		},
		{
			"buffer":0,
			"byteLength":840,
			"byteOffset":208504,
			"target":34962
		},
		{
			"buffer":0,
			"byteLength":560,
			"byteOffset":209344,
			"target":34962
		},
		{
			"buffer":0,
			"byteLength":288,
			"byteOffset":209904,
			"target":34963
		},
		{
			"buffer":0,
			"byteLength":129456,
			"byteOffset":210192,
			"target":34962
		},
		{
			"buffer":0,
			"byteLength":129456,
			"byteOffset":339648,
			"target":34962
		},
		{
			"buffer":0,
			"byteLength":86304,
			"byteOffset":469104,
			"target":34962
		},
		{
			"buffer":0,
			"byteLength":28824,
			"byteOffset":555408,
			"target":34963
		},
		{
			"buffer":0,
			"byteLength":29808,
			"byteOffset":584232,
			"target":34962
		},
		{
			"buffer":0,
			"byteLength":29808,
			"byteOffset":614040,
			"target":34962
		},
		{
			"buffer":0,
			"byteLength":19872,
			"byteOffset":643848,
			"target":34962
		},
		{
			"buffer":0,
			"byteLength":13248,
			"byteOffset":663720,
			"target":34963
		},
		{
			"buffer":0,
			"byteLength":4608,
			"byteOffset":676968,
			"target":34962
		},
		{
			"buffer":0,
			"byteLength":4608,
			"byteOffset":681576,
			"target":34962
		},
		{
			"buffer":0,
			"byteLength":3072,
			"byteOffset":686184,
			"target":34962
		},
		{
			"buffer":0,
			"byteLength":1488,
			"byteOffset":689256,
			"target":34963
		},
		{
			"buffer":0,
			"byteLength":4608,
			"byteOffset":690744,
			"target":34962
		},
		{
			"buffer":0,
			"byteLength":4608,
			"byteOffset":695352,
			"target":34962
		},
		{
			"buffer":0,
			"byteLength":3072,
			"byteOffset":699960,
			"target":34962
		},
		{
			"buffer":0,
			"byteLength":129456,
			"byteOffset":703032,
			"target":34962
		},
		{
			"buffer":0,
			"byteLength":129456,
			"byteOffset":832488,
			"target":34962
		},
		{
			"buffer":0,
			"byteLength":86304,
			"byteOffset":961944,
			"target":34962
		}
	],
	"buffers":[
		{
			"byteLength":1048248,
			"uri":"CHU.bin"
		}
	]
}
