<?xml version="1.0" encoding="UTF-8"?>
<svg id="Calque_2" xmlns="http://www.w3.org/2000/svg" viewBox="0 0 408.69 336.35">
  <defs>
    <style>
      .cls-1, .cls-2 {
        fill: #fc6b44;
      }

      .cls-2, .cls-3, .cls-4 {
        fill-rule: evenodd;
      }

      .cls-3 {
        fill: #fff;
      }

      .cls-4, .cls-5 {
        fill: #01253f;
      }
    </style>
  </defs>
  <g id="Calque_1-2" data-name="Calque_1">
    <path class="cls-2" d="M191.42,100.54c-11.92,5.06-21.78,9.23-29.98,12.68-36.44,15.32-40.06,16.22-46.27,16.26-30.53.16-45.15-40.96-22.46-62.82,3.38-3.29,13.27-7.95,45.02-21.08,3.13-1.3,6.47-2.67,10.04-4.14,32.06-13.1,52.16-20.68,55.36-20.69,3.46-.15,23.64,7.21,70.14,25.63,35.81,14.21,74.96,29.74,87.12,34.48,12.16,4.74,23.38,9.48,24.99,10.4,6.42,4.1,7.11,8.23,7.3,44.76l.18,34.13-7.62-3.03c-9.49-3.68-84.45-33.55-139.76-55.66l-41.15-16.45-12.9,5.54Z"/>
    <path class="cls-5" d="M406.95,238.21h0c.05,1.04-.12,2.11-.52,3.13-.08.21-.17.41-.27.6-1.29,2.58-3.93,4.14-6.71,4.14-.92,0-1.85-.17-2.76-.52l-132.27-52.31c-3.86-1.52-5.74-5.88-4.22-9.73,1.52-3.85,5.88-5.74,9.73-4.22l132.28,52.31c2.82,1.11,4.6,3.75,4.74,6.6Z"/>
    <path class="cls-5" d="M345.17,271.19c-.18.45-.4.88-.65,1.27-1.39,2.18-3.8,3.47-6.33,3.47-.26,0-.53-.01-.79-.04-.66-.07-1.32-.23-1.96-.49l-132.28-52.3c-3.85-1.52-5.74-5.88-4.22-9.73,1.52-3.85,5.88-5.74,9.73-4.22l132.28,52.3c3.85,1.53,5.74,5.88,4.22,9.74Z"/>
    <path class="cls-5" d="M283.08,300.77c-.65,1.66-1.83,2.95-3.27,3.77l-.09.05-.57.27c-.95.42-1.98.65-3.04.65-.92,0-1.85-.17-2.76-.52l-132.28-52.31c-3.85-1.52-5.74-5.88-4.21-9.73,1.52-3.85,5.88-5.74,9.73-4.21l132.28,52.3c3.85,1.52,5.74,5.88,4.21,9.73Z"/>
    <path id="_x3C_Tracé_x3E_" class="cls-4" d="M408.46,145.13c.46,36.53.09,47.81.09,47.81,0,0-47.93-18.09-103.25-40.2l-100.61-40-37.66,15.53c-43.63,18.1-48.83,19.59-61.78,16.46-16.81-4.11-29.46-15.71-35.46-30.75-3.92-9.8-5.18-24.13-3.41-32.64.7-3.36,1.21-5.32,1.61-6.58.34-.93.7-1.85,1.09-2.76-.09.2-.17.38-.26.58-.23.5-.49,1.08-.83,2.18-.23.62-.45,1.24-.65,1.87.09-.96.08-1.6-.02-1.76-1.34-1.2-44.58,17.43-48.03,20.78-1.99,1.88-4.23,5.76-5.02,8.56-.78,3.21-1.05,28.41-.57,68.94v.69c.73,61.72.75,63.32,3.56,67.03,1.48,1.99,5.09,5.03,8.03,6.49,2.81,1.58,46.37,18.95,96.74,38.69,50.37,19.73,92.6,36.84,93.94,37.9,3.48,3.05,2.98,9.05-1.01,11.74-.14.09-.28.18-.42.26l-.24.12c-3.28,1.48-11.41-1.65-100.46-36.78-72.02-28.42-99.02-39.61-102.36-42.53-2.55-2.25-6.17-7.03-7.79-10.76l-3.24-6.65L.09,170.82c-.26-48.13.03-70,1.21-73.61,1.83-6.27,8.99-15.11,14.84-18.21,1.93-1.04,32.21-13.6,70.85-29.53.71-.54,1.46-1.07,2.23-1.61,5.35-2.21,10.85-4.48,16.46-6.79l2.49-1.02C188.26,7.23,195.98,4.38,203.31,4.35c7.07-.04,11.74,1.4,39.67,12.59,17.35,6.96,32.3,12.62,33.13,12.62s1.32-3.74,1.29-9.47c-.06-10.8,1.12-13.61,6.97-17.24,3.86-2.42,6.79-2.7,28.66-2.82h1.24c17.85-.1,26.61-.15,30.92,4.21,4.15,4.18,4.19,12.44,4.28,28.63v1.1c.09,17.74.53,24.54,1.87,25.46.8.8,9.89,4.48,20.18,8.43,14.03,5.39,20.04,8.43,24.86,12.67,11.25,9.94,11.26,10.21,12.08,64.56v.04ZM333.39,18.59l-40,.22.05,8.66c.02,4.64.17,8.42.42,8.65h.02c.24.01,4.97,1.82,10.99,4.31l.11.04c.82.35,1.67.7,2.53,1.06,2.26.89,4.67,1.85,7.02,2.78,5.27,2.09,10.26,4.07,12.76,4.98l6.27,2.37-.17-33.07ZM385.24,167.12l7.62,3.03-.18-34.13c-.19-36.54-.88-40.67-7.31-44.77-1.6-.92-12.83-5.66-24.98-10.4-12.16-4.73-51.31-20.26-87.12-34.47-46.5-18.42-66.67-25.78-70.14-25.63-3.2.01-23.29,7.59-55.36,20.69-3.57,1.47-6.91,2.84-10.04,4.14-31.75,13.13-41.64,17.79-45.02,21.08-22.69,21.86-8.07,62.98,22.46,62.82,6.21-.03,9.83-.94,46.27-16.26,8.2-3.44,18.06-7.62,29.98-12.68l12.91-5.53,41.15,16.45c55.32,22.11,130.27,51.98,139.76,55.66Z"/>
    <polygon class="cls-1" points="293.39 18.8 333.39 18.59 333.56 51.66 293.39 35.94 293.39 18.8"/>
    <path class="cls-3" d="M403.43,245.05l-60.39,29.11c.25-.39,1.12-.54,2.13-2.96,1.6-3.83-.37-8.21-4.22-9.74l-132.28-52.3c-3.85-1.52-8.21.37-9.73,4.22-1.52,3.85.37,8.21,4.22,9.73l132.28,52.3c.64.26,3.14.93,4.84.12l-60.47,29.02c1.44-.82,2.62-2.11,3.27-3.77,1.53-3.85-.36-8.21-4.21-9.73l-132.28-52.3c-3.85-1.53-8.21.36-9.73,4.21-1.53,3.85.36,8.21,4.21,9.73l132.28,52.31c.91.35,1.84.52,2.76.52,1.06,0,2.09-.23,3.04-.65l-64.61,31.09c.14-.08.28-.17.42-.26,3.99-2.69,4.49-8.69,1.01-11.74-1.34-1.06-43.57-18.17-93.94-37.9-50.37-19.74-93.93-37.11-96.74-38.69-2.94-1.46-6.55-4.5-8.03-6.49-2.81-3.71-2.83-5.31-3.55-67.03v-.69c-.49-40.53-.22-65.73.56-68.94.79-2.8,3.03-6.68,5.02-8.56,3.45-3.35,46.69-21.98,48.03-20.78.1.16.11.8.02,1.76.2-.63.42-1.25.65-1.87-.4,1.26-.91,3.22-1.61,6.58-1.77,8.51-.51,22.84,3.41,32.64,6,15.04,18.65,26.64,35.46,30.75,12.95,3.13,18.15,1.64,61.78-16.46l37.66-15.53,100.61,40c55.32,22.11,103.25,40.2,103.25,40.2l-1.6,45.27c-.14-2.85-1.92-5.49-4.74-6.6l-132.28-52.31c-3.85-1.52-8.21.37-9.73,4.22-1.52,3.85.36,8.21,4.22,9.73l132.27,52.31c.91.35,1.84.52,2.76.52"/>
  </g>
</svg>