{
	"asset":{
		"generator":"Khronos glTF Blender I/O v4.5.47",
		"version":"2.0"
	},
	"scene":0,
	"scenes":[
		{
			"name":"Scene",
			"nodes":[
				0,
				1,
				2
			]
		}
	],
	"nodes":[
		{
			"mesh":0,
			"name":"Sphere",
			"scale":[
				10.881316184997559,
				8.121665000915527,
				10.881316184997559
			],
			"translation":[
				0,
				-1.3814425468444824,
				0
			]
		},
		{
			"mesh":1,
			"name":"Torus",
			"scale":[
				2.2749099731445312,
				2.2749099731445312,
				2.2749099731445312
			],
			"translation":[
				0,
				1.1514036655426025,
				0
			]
		},
		{
			"mesh":2,
			"name":"Torus.001",
			"scale":[
				1.8288869857788086,
				1.8288869857788086,
				1.8288869857788086
			],
			"translation":[
				0,
				1.1383090019226074,
				0
			]
		}
	],
	"materials":[
		{
			"doubleSided":true,
			"name":"GroundSand005_4K",
			"normalTexture":{
				"index":0
			},
			"pbrMetallicRoughness":{
				"baseColorTexture":{
					"index":1
				},
				"metallicRoughnessTexture":{
					"index":2
				}
			}
		},
		{
			"doubleSided":true,
			"name":"GroundDirtWeedsPatchy004_2K.001",
			"normalTexture":{
				"index":3
			},
			"pbrMetallicRoughness":{
				"baseColorTexture":{
					"index":4
				},
				"metallicRoughnessTexture":{
					"index":5
				}
			}
		},
		{
			"doubleSided":true,
			"name":"TilesMosaicYubi003_2K",
			"normalTexture":{
				"index":6
			},
			"pbrMetallicRoughness":{
				"baseColorTexture":{
					"index":7
				},
				"metallicRoughnessTexture":{
					"index":8
				}
			}
		}
	],
	"meshes":[
		{
			"name":"Sphere",
			"primitives":[
				{
					"attributes":{
						"POSITION":0,
						"NORMAL":1,
						"TEXCOORD_0":2
					},
					"indices":3,
					"material":0
				},
				{
					"attributes":{
						"POSITION":4,
						"NORMAL":5,
						"TEXCOORD_0":6
					},
					"indices":7,
					"material":0
				},
				{
					"attributes":{
						"POSITION":8,
						"NORMAL":9,
						"TEXCOORD_0":10
					},
					"indices":11,
					"material":1
				}
			]
		},
		{
			"name":"Torus",
			"primitives":[
				{
					"attributes":{
						"POSITION":12,
						"NORMAL":13,
						"TEXCOORD_0":14
					},
					"indices":15,
					"material":2
				}
			]
		},
		{
			"name":"Torus.001",
			"primitives":[
				{
					"attributes":{
						"POSITION":16,
						"NORMAL":17,
						"TEXCOORD_0":18
					},
					"indices":15,
					"material":2
				}
			]
		}
	],
	"textures":[
		{
			"sampler":0,
			"source":0
		},
		{
			"sampler":0,
			"source":1
		},
		{
			"sampler":0,
			"source":2
		},
		{
			"sampler":0,
			"source":3
		},
		{
			"sampler":0,
			"source":4
		},
		{
			"sampler":0,
			"source":5
		},
		{
			"sampler":0,
			"source":6
		},
		{
			"sampler":0,
			"source":7
		},
		{
			"sampler":0,
			"source":8
		}
	],
	"images":[
		{
			"mimeType":"image/jpeg",
			"name":"GroundSand005_NRM_4K",
			"uri":"GroundSand005_NRM_4K.jpg"
		},
		{
			"mimeType":"image/jpeg",
			"name":"GroundSand005_COL_4K",
			"uri":"GroundSand005_COL_4K.jpg"
		},
		{
			"mimeType":"image/png",
			"name":"GroundSand005_REFL_4K_jpg-GroundSand005_GLOSS_4K_jpg",
			"uri":"GroundSand005_REFL_4K_jpg-GroundSand005_GLOSS_4K_jpg.png"
		},
		{
			"mimeType":"image/jpeg",
			"name":"GroundDirtWeedsPatchy004_NRM_2K",
			"uri":"GroundDirtWeedsPatchy004_NRM_2K.jpg"
		},
		{
			"mimeType":"image/jpeg",
			"name":"GroundDirtWeedsPatchy004_COL_2K",
			"uri":"GroundDirtWeedsPatchy004_COL_2K.jpg"
		},
		{
			"mimeType":"image/png",
			"name":"GroundDirtWeedsPatchy004_REFL_2K_jpg-GroundDirtWeedsPatchy004_GLOSS_2K_jpg",
			"uri":"GroundDirtWeedsPatchy004_REFL_2K_jpg-GroundDirtWeedsPatchy004_GLOSS_2K_jpg.png"
		},
		{
			"mimeType":"image/png",
			"name":"TilesMosaicYubi003_NRM_2K",
			"uri":"TilesMosaicYubi003_NRM_2K.png"
		},
		{
			"mimeType":"image/png",
			"name":"TilesMosaicYubi003_COL_2K",
			"uri":"TilesMosaicYubi003_COL_2K.png"
		},
		{
			"mimeType":"image/png",
			"name":"TilesMosaicYubi003_REFL_2K_png-TilesMosaicYubi003_GLOSS_2K_png",
			"uri":"TilesMosaicYubi003_REFL_2K_png-TilesMosaicYubi003_GLOSS_2K_png.png"
		}
	],
	"accessors":[
		{
			"bufferView":0,
			"componentType":5126,
			"count":742,
			"max":[
				1.8994466066360474,
				0.4570378363132477,
				1.8130755424499512
			],
			"min":[
				-1.8240773677825928,
				-0.01833435893058777,
				-1.8130865097045898
			],
			"type":"VEC3"
		},
		{
			"bufferView":1,
			"componentType":5126,
			"count":742,
			"type":"VEC3"
		},
		{
			"bufferView":2,
			"componentType":5126,
			"count":742,
			"type":"VEC2"
		},
		{
			"bufferView":3,
			"componentType":5123,
			"count":1062,
			"type":"SCALAR"
		},
		{
			"bufferView":4,
			"componentType":5126,
			"count":400,
			"max":[
				3.6992130279541016,
				0.34424731135368347,
				3.7702689170837402
			],
			"min":[
				-3.818844795227051,
				-3.312180280685425,
				-3.7702839374542236
			],
			"type":"VEC3"
		},
		{
			"bufferView":5,
			"componentType":5126,
			"count":400,
			"type":"VEC3"
		},
		{
			"bufferView":6,
			"componentType":5126,
			"count":400,
			"type":"VEC2"
		},
		{
			"bufferView":7,
			"componentType":5123,
			"count":600,
			"type":"SCALAR"
		},
		{
			"bufferView":8,
			"componentType":5126,
			"count":128,
			"max":[
				1.1570725440979004,
				0.3369424343109131,
				1.166977882385254
			],
			"min":[
				-1.1669777631759644,
				0.3296372890472412,
				-1.1669772863388062
			],
			"type":"VEC3"
		},
		{
			"bufferView":9,
			"componentType":5126,
			"count":128,
			"type":"VEC3"
		},
		{
			"bufferView":10,
			"componentType":5126,
			"count":128,
			"type":"VEC2"
		},
		{
			"bufferView":11,
			"componentType":5123,
			"count":192,
			"type":"SCALAR"
		},
		{
			"bufferView":12,
			"componentType":5126,
			"count":2304,
			"max":[
				4.800000190734863,
				0.12000000476837158,
				4.800000190734863
			],
			"min":[
				-4.800000190734863,
				-0.12000000476837158,
				-4.800000190734863
			],
			"type":"VEC3"
		},
		{
			"bufferView":13,
			"componentType":5126,
			"count":2304,
			"type":"VEC3"
		},
		{
			"bufferView":14,
			"componentType":5126,
			"count":2304,
			"type":"VEC2"
		},
		{
			"bufferView":15,
			"componentType":5123,
			"count":3456,
			"type":"SCALAR"
		},
		{
			"bufferView":16,
			"componentType":5126,
			"count":2304,
			"max":[
				7.070000171661377,
				0.12000000476837158,
				7.070000171661377
			],
			"min":[
				-7.070000171661377,
				-0.12000000476837158,
				-7.070000171661377
			],
			"type":"VEC3"
		},
		{
			"bufferView":17,
			"componentType":5126,
			"count":2304,
			"type":"VEC3"
		},
		{
			"bufferView":18,
			"componentType":5126,
			"count":2304,
			"type":"VEC2"
		}
	],
	"bufferViews":[
		{
			"buffer":0,
			"byteLength":8904,
			"byteOffset":0,
			"target":34962
		},
		{
			"buffer":0,
			"byteLength":8904,
			"byteOffset":8904,
			"target":34962
		},
		{
			"buffer":0,
			"byteLength":5936,
			"byteOffset":17808,
			"target":34962
		},
		{
			"buffer":0,
			"byteLength":2124,
			"byteOffset":23744,
			"target":34963
		},
		{
			"buffer":0,
			"byteLength":4800,
			"byteOffset":25868,
			"target":34962
		},
		{
			"buffer":0,
			"byteLength":4800,
			"byteOffset":30668,
			"target":34962
		},
		{
			"buffer":0,
			"byteLength":3200,
			"byteOffset":35468,
			"target":34962
		},
		{
			"buffer":0,
			"byteLength":1200,
			"byteOffset":38668,
			"target":34963
		},
		{
			"buffer":0,
			"byteLength":1536,
			"byteOffset":39868,
			"target":34962
		},
		{
			"buffer":0,
			"byteLength":1536,
			"byteOffset":41404,
			"target":34962
		},
		{
			"buffer":0,
			"byteLength":1024,
			"byteOffset":42940,
			"target":34962
		},
		{
			"buffer":0,
			"byteLength":384,
			"byteOffset":43964,
			"target":34963
		},
		{
			"buffer":0,
			"byteLength":27648,
			"byteOffset":44348,
			"target":34962
		},
		{
			"buffer":0,
			"byteLength":27648,
			"byteOffset":71996,
			"target":34962
		},
		{
			"buffer":0,
			"byteLength":18432,
			"byteOffset":99644,
			"target":34962
		},
		{
			"buffer":0,
			"byteLength":6912,
			"byteOffset":118076,
			"target":34963
		},
		{
			"buffer":0,
			"byteLength":27648,
			"byteOffset":124988,
			"target":34962
		},
		{
			"buffer":0,
			"byteLength":27648,
			"byteOffset":152636,
			"target":34962
		},
		{
			"buffer":0,
			"byteLength":18432,
			"byteOffset":180284,
			"target":34962
		}
	],
	"samplers":[
		{
			"magFilter":9729,
			"minFilter":9987
		}
	],
	"buffers":[
		{
			"byteLength":198716,
			"uri":"Island.bin"
		}
	]
}
